<?xml version="1.0" encoding="UTF-8"?> <svg xmlns="http://www.w3.org/2000/svg" width="89" height="89" viewBox="0 0 89 89" fill="none"> <path d="M70.703 39.4337L70.703 39.4337L70.6997 39.4406L71.5989 39.8782C70.6997 39.4406 70.6995 39.4409 70.6994 39.4412L70.699 39.442L70.6981 39.4439L70.6954 39.4495L70.6868 39.4674C70.6797 39.4823 70.6699 39.5032 70.6575 39.53C70.6327 39.5836 70.5977 39.6608 70.5539 39.761C70.4662 39.9612 70.3435 40.2534 70.1973 40.6322C69.9052 41.3897 69.5194 42.4946 69.1348 43.9051C68.3659 46.7255 67.6004 50.7733 67.6004 55.7126C67.6004 59.2203 66.9263 64.7729 65.8215 70.3171C64.7153 75.868 63.2024 81.2815 61.5701 84.562C60.4497 86.6922 57.0432 86.4216 56.2432 83.9395C55.4484 81.1478 54.7014 77.2817 53.9279 73.0057C53.7508 72.0271 53.5726 71.0278 53.3922 70.017C52.7871 66.6252 52.1589 63.104 51.4775 59.8005C50.5948 55.5216 49.609 51.5354 48.4386 48.6126C47.8553 47.1558 47.2004 45.896 46.4439 44.9891C45.6942 44.0903 44.7299 43.409 43.5417 43.4277C42.3466 43.4091 41.3731 44.0832 40.6126 44.9849C39.8471 45.8925 39.1868 47.1535 38.6005 48.6111C37.4244 51.5355 36.4418 55.5229 35.5658 59.802C34.89 63.1031 34.2694 66.6215 33.6716 70.0108C33.4928 71.0244 33.316 72.0264 33.1405 73.0075C32.3753 77.2836 31.635 81.1488 30.8406 83.9394C30.0397 86.4241 26.6269 86.6927 25.5101 84.5553C23.811 81.2822 22.2709 75.8624 21.1549 70.3023C20.0416 64.7558 19.3763 59.203 19.3763 55.7126C19.3763 50.7733 18.6108 46.7255 17.8418 43.9051C17.4573 42.4946 17.0715 41.3897 16.7793 40.6322C16.6332 40.2534 16.5104 39.9612 16.4228 39.761C16.379 39.6608 16.3439 39.5836 16.3191 39.53C16.3067 39.5032 16.2969 39.4823 16.2898 39.4674L16.2813 39.4495L16.2786 39.4439L16.278 39.4427C16.2779 39.4425 16.2778 39.4422 16.2777 39.442C12.2105 31.0337 11.8113 21.8153 12.057 15.9697C12.1743 14.4038 12.6568 12.6159 13.3278 10.969C14.0025 9.31265 14.8343 7.88099 15.594 7.00609C16.3657 6.13577 17.4815 5.25863 18.6699 4.54985C19.8517 3.84496 21.0258 3.35395 21.9169 3.18037C24.0565 2.94355 28.3648 2.94477 31.6516 3.43088L31.6516 3.43097L31.6649 3.43275L43.4088 5.00903L43.5419 5.02688L43.6749 5.00903L55.4188 3.43275L55.434 3.43072L55.449 3.42823C58.5919 2.90831 63.0406 2.90913 65.0537 3.17894C66.0011 3.35144 67.2164 3.84592 68.417 4.55616C69.6211 5.26856 70.7312 6.1512 71.48 7.03063C72.228 7.90905 73.0617 9.34568 73.7222 10.9986C74.3816 12.6485 74.8341 14.429 74.8829 15.9789L74.8834 15.9965L74.8846 16.0141C75.2713 21.8008 74.8764 31.022 70.703 39.4337Z" stroke="black" stroke-width="2"></path> </svg> 