<?xml version="1.0" encoding="UTF-8"?>
<svg id="_Слой_1" data-name="Слой 1" xmlns="http://www.w3.org/2000/svg" viewBox="0 0 235.78 61.56">
  <defs>
    <style>
      .cls-1, .cls-2 {
        fill: #fff;
      }

      .cls-2 {
        fill-rule: evenodd;
      }

      .cls-3, .cls-4, .cls-5, .cls-6, .cls-7, .cls-8, .cls-9, .cls-10 {
        fill: none;
        stroke: #fff;
      }

      .cls-3, .cls-4, .cls-5, .cls-6, .cls-7, .cls-10 {
        stroke-miterlimit: 10;
      }

      .cls-4, .cls-10 {
        stroke-width: .75px;
      }

      .cls-5, .cls-10 {
        stroke-linecap: round;
      }

      .cls-6 {
        stroke-width: 2px;
      }

      .cls-7, .cls-8 {
        stroke-width: .5px;
      }

      .cls-8, .cls-9 {
        stroke-miterlimit: 8;
      }
    </style>
  </defs>
  <g id="_Логотип" data-name="Логотип">
    <rect id="_Подложка" data-name="Подложка" class="cls-6" x="1.06" y="1.91" width="57.57" height="57.57" rx="13.38" ry="13.38"/>
    <g id="_Лепесток" data-name="Лепесток">
      <path id="_Контур" data-name="Контур" class="cls-9" d="m14.74,2.29C7.39,2.29,1.43,8.17,1.43,15.42v2.4h26.15c7.35,0,13.31-5.88,13.31-13.12v-2.4H14.74Z"/>
      <g>
        <path class="cls-1" d="m12.23,6.77c.29.1.54.25.75.43.2.19.36.42.48.67.12.27.17.56.17.89,0,.35-.06.65-.19.92-.13.27-.3.5-.53.67-.21.2-.48.34-.78.43-.3.11-.63.15-.98.15h-1.21v1.62h-1.33v-5.94h2.64c.35,0,.67.05.97.16Zm-1.07,2.98c.35,0,.63-.09.83-.27.2-.18.3-.42.3-.72s-.09-.53-.27-.7c-.19-.18-.45-.27-.82-.27h-1.26v1.95h1.21Z"/>
        <path class="cls-1" d="m16.06,11.35h2.4v-4.74h1.34v4.74h.79v.41l-.11,2.03h-1.2l-.06-1.24h-4.5v-5.94h1.34v4.74Z"/>
        <path class="cls-1" d="m26.82,12.55h-1.34v-4.71h-2.52v4.71h-1.34v-5.94h5.2v5.94Z"/>
        <path class="cls-1" d="m33.41,12.55h-1.34v-4.71h-2.52v4.71h-1.34v-5.94h5.2v5.94Z"/>
      </g>
    </g>
    <g id="_Работник" data-name="Работник">
      <path class="cls-4" d="m51.03,23.12c.56.3,1.6.94,2.41,2.15,1.32,1.99,1.19,4.3,1.1,4.88"/>
      <path class="cls-10" d="m49.76,29.33c0-.76.01-1.34.04-2.44.06-1.66.11-2.44.66-3.19.19-.28.41-.47.56-.58-.18-.15-.59-.47-1.23-.59-.58-.11-1.05.01-1.27.08-.03.17-.04.32-.06.48-.14,1.23-.18,2.4-.17,3.5"/>
      <path class="cls-4" d="m48.53,22.61c-.03-.06-.26-.41-.72-.47-.36-.06-.73.11-.95.41"/>
      <path class="cls-10" d="m46.96,26.58c.01-.43,0-.92,0-1.37.01-.97-.03-1.79-.1-2.65-.19-.04-.65-.22-1.17-.04-.4.14-.68.37-.81.51-.51.28-1.06.68-1.6,1.23-2.09,2.18-2.07,4.91-2.03,5.75"/>
      <path class="cls-4" d="m44.9,23.04c.11.14.26.43.36.69.14.36.14.66.14.79,0,.54-.03,2.22-.1,4.91"/>
      <path class="cls-4" d="m53.8,33.35c.28-.14.68-.39.98-.83.45-.66.59-1.83-.06-2.28-.72-.47-3.21-1.02-7.32-.9-4.01.12-6.55.3-6.97,1.42-.15.39-.08.81-.08.81.18.97,1.3,1.46,1.6,1.59"/>
      <path class="cls-4" d="m53.51,33.52l.29-.17c.69-.46,1.12-1.19.95-1.68-.63-1.94-13.45-1.67-13.93.18-.12.44.51.94,1.13,1.32l.15.44s.01.08,0,.12c-.08.28-.15.58-.18.9-.06.51-.12,1.23.28,1.89.18.29.4.5.58.63.06.22.11.44.18.66.3.99.76,1.81,1.2,2.44.17.21.33.43.52.65.36.43.73.8,1.07,1.12.33.14.63.21.85.25.7.12,1.25.03,1.43-.01.3-.06.55-.15.72-.22.47-.25,1.02-.59,1.58-1.06.39-.32.72-.63.99-.94.17-.21.34-.47.51-.79.32-.61.61-1.83.68-2.25.23-.21.63-.4.91-1.39.29-1.03.12-2.12.01-2.41l.18-2.22"/>
      <path class="cls-10" d="m52.52,37.04c-.04.41-.23,1.52-.26,1.96-.04.65-.06,1.28-.07,1.88-.01.14-.07.95.54,1.61.4.44,1.99,1.52,5.87,4.68"/>
      <path class="cls-10" d="m44.23,40.39v1.43c0,.37-.26.7-.63.79,0,0-8.76.33-10.69,6.04-.58,1.7-4.9,6.24-4.91,10.83"/>
      <line class="cls-4" x1="42.07" y1="31.02" x2="42.1" y2="33.74"/>
    </g>
    <g id="_Врач" data-name="Врач">
      <g id="_Врач-2" data-name="Врач">
        <path class="cls-5" d="m1.68,50.16s0-3.41,1.96-5.35c3.01-2.89,10.42-6.21,11.84-6.83.15-.06.25-.22.22-.37l-.34-3.41s-.03-.03-.03-.03c-.18.03-.95.22-1.45-1.69-.28-1.17-.65-3.29.4-3.57-.03-.71-.15-5.9,2.24-6.86.34-.15,5.04-2.37,6.21.06.15.31.43.52.77.55,2.89.25,3.01,4.03,2.86,6.92t.03.03c.25.12.4.31.55.46.68.83.03,2.83-1.01,4.31-.18.31-.62.15-.74.18-.43.68-1.01,3.54-.86,3.6,2.06,1.17,8.88,4.31,10.46,7.4"/>
        <path class="cls-3" d="m15.73,37.12c-.28-.03-.68-.03-1.14.12-1.05.34-1.6,1.14-1.81,1.48-.52.83-.55,3.35-.46,3.69"/>
        <path class="cls-3" d="m9.61,53.6c-5.14-.77.8-10.95,2.74-11.19,2.28-.28,8.24,10.79,3.29,11.32"/>
        <path class="cls-3" d="m24.53,37.12s1.75,1.51,1.88,4.12c.12,2.61-1.17,11.5-1.17,11.5"/>
        <path class="cls-4" d="m27.7,52.37c0,1.29-1.05,2.34-2.34,2.34s-2.34-1.05-2.34-2.34,1.05-2.34,2.34-2.34,2.34,1.05,2.34,2.34h0Z"/>
        <path class="cls-3" d="m10.78,53.26c.03-.12-1.05.03-1.14.22,0,.03-.03.06-.03.12,0,.18.71.37.98.43.09.03.18-.03.18-.15.03-.18,0-.52,0-.62h0Z"/>
        <path class="cls-3" d="m14.47,53.38c-.03-.12,1.05.03,1.14.22,0,.03.03.06.03.12,0,.18-.71.37-.98.43-.09.03-.18-.03-.18-.15-.06-.18-.03-.52,0-.62h0Z"/>
        <path class="cls-3" d="m9.61,53.6c-5.14-.77.25-11.25,2.74-11.19,2.31.09,8.24,10.79,3.29,11.32"/>
      </g>
      <g id="_Крест" data-name="Крест">
        <path id="_Контур-2" data-name="Контур" class="cls-8" d="m22.01,52.37c0-1.85,1.5-3.35,3.35-3.35s3.35,1.5,3.35,3.35-1.5,3.35-3.35,3.35-3.35-1.5-3.35-3.35h0Z"/>
        <path id="_Контур-3" data-name="Контур" class="cls-2" d="m23.87,52.32c0-.82.66-1.49,1.49-1.49s1.49.66,1.49,1.49-.66,1.49-1.49,1.49-1.49-.66-1.49-1.49h0Z"/>
      </g>
    </g>
  </g>
  <g>
    <g id="_Текст" data-name="Текст">
      <g>
        <path class="cls-1" d="m122.01,49.82h-2.22v-5.93h-3.07v5.93h-2.22v-7.86h7.5v7.86Z"/>
        <path class="cls-1" d="m125.5,42.99c.32-.43.69-.74,1.11-.94.43-.18.94-.28,1.53-.28s1.06.09,1.51.28c.45.2.85.46,1.16.83.34.34.58.77.77,1.26.17.51.26,1.06.26,1.66,0,.68-.11,1.28-.34,1.8-.23.52-.54.97-.91,1.31-.4.37-.83.63-1.33.8-.51.18-1.03.28-1.57.28-.35,0-.69-.03-1.02-.11-.32-.08-.63-.2-.92-.37v3.16h-2.19v-10.73h1.77l.17,1.03Zm1.08,4.9c.31.09.63.14.96.14.62,0,1.11-.2,1.5-.6.38-.4.57-.96.57-1.66,0-.63-.15-1.12-.48-1.49-.32-.37-.77-.56-1.34-.56-.51,0-.92.12-1.26.35-.34.23-.6.55-.77.94v2.51c.26.15.54.28.83.37Z"/>
        <path class="cls-1" d="m138.64,42.07c.54.2.99.48,1.37.85.38.35.68.79.88,1.29.22.51.32,1.06.32,1.68s-.11,1.16-.32,1.66c-.21.51-.52.94-.89,1.31-.4.35-.85.65-1.37.83-.52.22-1.09.31-1.71.31s-1.22-.09-1.74-.29c-.52-.2-.97-.48-1.36-.83-.39-.35-.68-.79-.88-1.31-.22-.49-.32-1.06-.32-1.68s.11-1.16.32-1.65c.2-.52.49-.96.88-1.31.38-.35.83-.65,1.36-.85.52-.2,1.11-.31,1.74-.31s1.2.09,1.73.29Zm-3.27,2.25c-.39.4-.57.92-.57,1.57s.18,1.2.57,1.59c.38.4.89.6,1.54.6s1.17-.2,1.54-.6c.37-.39.55-.92.55-1.59s-.18-1.19-.55-1.59c-.39-.39-.89-.59-1.54-.59s-1.17.2-1.54.6Z"/>
        <path class="cls-1" d="m149.52,42.28c.45-.34,1-.51,1.67-.51,1.16,0,2.05.35,2.7,1.06.66.71.99,1.74.99,3.08,0,.65-.11,1.22-.32,1.74-.22.49-.51.92-.88,1.28-.37.35-.8.62-1.29.79-.48.18-.99.28-1.53.28-.28,0-.51-.02-.72-.05-.18-.03-.4-.09-.6-.17v2.9h-2.17v-3.17c-.45.32-1.02.49-1.68.49-1.14,0-2.03-.35-2.7-1.08-.66-.71-.99-1.73-.99-3.07,0-.65.11-1.22.32-1.74.21-.49.51-.92.88-1.26.37-.35.8-.62,1.29-.8.48-.18.99-.28,1.53-.28.49,0,.94.08,1.34.23v-2.93h2.17v3.21Zm-3.28,1.42c-.63,0-1.12.18-1.5.55-.37.37-.55.91-.55,1.62s.15,1.29.48,1.66c.32.35.74.54,1.26.54.32,0,.59-.05.82-.14.23-.11.43-.25.6-.45v-3.59c-.32-.14-.69-.2-1.11-.2Zm3.79,4.33c.19.03.37.05.6.05.63,0,1.12-.18,1.49-.55.35-.37.54-.91.54-1.62s-.15-1.29-.48-1.66c-.31-.35-.72-.54-1.25-.54-.32,0-.58.05-.82.14-.23.11-.43.25-.6.45v3.61c.17.06.35.11.51.14Z"/>
        <path class="cls-1" d="m163.4,49.82h-2.22v-5.93h-3.07v5.93h-2.22v-7.86h7.51v7.86Z"/>
        <path class="cls-1" d="m166.54,41.99c.57-.14,1.16-.22,1.76-.22.63,0,1.17.08,1.63.25.45.17.83.4,1.11.68.31.31.52.65.65,1.06.15.42.22.86.22,1.37v2.37c0,.42.15.62.46.62.11,0,.2-.02.26-.05l.2,1.74c-.14.05-.29.09-.46.12-.17.03-.35.05-.55.05-.43,0-.8-.09-1.09-.28s-.49-.49-.57-.94c-.29.43-.68.74-1.12.94s-.99.29-1.59.29c-.91,0-1.63-.22-2.19-.68-.52-.43-.8-1.09-.8-1.94,0-.42.09-.79.26-1.11.17-.32.42-.59.76-.8.31-.22.71-.37,1.14-.49.46-.09.96-.15,1.51-.15.32,0,.62.02.86.06.28.05.52.09.75.15v-.25c0-.34-.12-.6-.35-.8-.23-.18-.6-.28-1.09-.28-.88,0-1.73.2-2.54.59l-.86-1.6c.55-.32,1.11-.57,1.66-.71Zm1.63,4.41c-.52,0-.89.08-1.14.25-.22.15-.34.37-.34.63s.09.46.28.6c.17.15.46.23.85.23.63,0,1.11-.14,1.43-.42.32-.26.49-.59.49-.94v-.19c-.48-.11-1-.17-1.57-.17Z"/>
        <path class="cls-1" d="m180.83,43.9h-2.64v5.92h-2.2v-5.92h-2.65v-1.94h7.49v1.94Z"/>
        <path class="cls-1" d="m187.51,42.07c.54.2.99.48,1.37.85.39.35.68.79.88,1.29.22.51.32,1.06.32,1.68s-.11,1.16-.32,1.66c-.22.51-.52.94-.89,1.31-.4.35-.85.65-1.37.83-.52.22-1.09.31-1.71.31s-1.22-.09-1.74-.29c-.52-.2-.97-.48-1.36-.83-.38-.35-.68-.79-.88-1.31-.22-.49-.32-1.06-.32-1.68s.11-1.16.32-1.65c.2-.52.49-.96.88-1.31.39-.35.83-.65,1.36-.85.52-.2,1.11-.31,1.74-.31s1.2.09,1.73.29Zm-3.27,2.25c-.39.4-.57.92-.57,1.57s.18,1.2.57,1.59c.39.4.89.6,1.54.6s1.17-.2,1.54-.6c.37-.39.55-.92.55-1.59s-.18-1.19-.55-1.59c-.38-.39-.89-.59-1.54-.59s-1.17.2-1.54.6Z"/>
        <path class="cls-1" d="m199.34,49.82h-2.2v-5.96h-2.27c0,.35,0,.71-.01,1.08-.02.37-.03.74-.06,1.09-.03.35-.08.71-.12,1.03-.05.32-.11.62-.18.88-.2.65-.49,1.14-.89,1.48-.4.35-.94.52-1.62.52-.31,0-.59-.02-.82-.06-.23-.03-.48-.09-.74-.2l.42-1.79c.12.05.25.08.37.11.14,0,.26.02.37.02.2,0,.37-.06.49-.19.12-.12.22-.28.29-.46.14-.34.23-.82.31-1.43.08-.63.11-1.43.11-2.42v-1.56h6.57v7.86Z"/>
        <path class="cls-1" d="m206.46,42.07c.54.2.99.48,1.37.85.39.35.68.79.88,1.29.22.51.32,1.06.32,1.68s-.11,1.16-.32,1.66c-.22.51-.52.94-.89,1.31-.4.35-.85.65-1.37.83-.52.22-1.09.31-1.71.31s-1.22-.09-1.74-.29c-.52-.2-.97-.48-1.36-.83-.38-.35-.68-.79-.88-1.31-.22-.49-.32-1.06-.32-1.68s.11-1.16.32-1.65c.2-.52.49-.96.88-1.31.39-.35.83-.65,1.36-.85.52-.2,1.11-.31,1.74-.31s1.2.09,1.73.29Zm-3.27,2.25c-.39.4-.57.92-.57,1.57s.18,1.2.57,1.59c.39.4.89.6,1.54.6s1.17-.2,1.54-.6c.37-.39.55-.92.55-1.59s-.18-1.19-.55-1.59c-.38-.39-.89-.59-1.54-.59s-1.17.2-1.54.6Z"/>
        <path class="cls-1" d="m216.54,43.9h-4.16v5.92h-2.2v-7.86h6.37v1.94Z"/>
        <path class="cls-1" d="m223.02,45.26l-3.44,4.56h-2v-7.86h2.19v4.65l3.48-4.65h1.96v7.86h-2.19v-4.56Z"/>
        <path class="cls-1" d="m232.13,45.26l-3.44,4.56h-2v-7.86h2.19v4.65l3.48-4.65h1.96v7.86h-2.19v-4.56Z"/>
      </g>
      <g>
        <path class="cls-1" d="m68.62,47.91h3.04v-5.95h2.19v5.95h1.12v.6l-.14,3.11h-1.91l-.11-1.8h-6.38v-7.86h2.19v5.95Z"/>
        <path class="cls-1" d="m78.4,47.66c.35.28.86.42,1.53.42.97,0,1.83-.25,2.56-.74l.94,1.6c-.54.39-1.09.65-1.68.82-.59.17-1.23.25-1.94.25s-1.29-.09-1.83-.29-.99-.48-1.34-.83-.63-.79-.82-1.29c-.2-.51-.29-1.06-.29-1.68,0-.57.11-1.11.29-1.62.22-.51.49-.94.86-1.31.38-.37.83-.66,1.36-.88.54-.22,1.12-.32,1.77-.32.55,0,1.06.09,1.53.28.48.17.88.43,1.2.76.34.32.6.72.79,1.19.19.45.28.96.28,1.53,0,.19-.01.37-.05.55-.02.19-.05.35-.09.52h-5.73c.08.43.31.79.68,1.06Zm2.53-3.64c-.26-.25-.65-.37-1.19-.37s-.97.12-1.28.35c-.32.23-.54.55-.68.97h3.56c-.02-.39-.15-.71-.42-.96Z"/>
        <path class="cls-1" d="m86.92,44.89h3.1v-2.93h2.22v7.86h-2.22v-3.01h-3.1v3.01h-2.22v-7.86h2.22v2.93Z"/>
        <path class="cls-1" d="m100.78,43.9h-2.64v5.92h-2.2v-5.92h-2.65v-1.94h7.49v1.94Z"/>
        <path class="cls-1" d="m103.74,42.99c.32-.43.69-.74,1.11-.94.43-.18.94-.28,1.53-.28.55,0,1.06.09,1.51.28.45.2.85.46,1.16.83.34.34.59.77.77,1.26.17.51.26,1.06.26,1.66,0,.68-.11,1.28-.34,1.8-.23.52-.54.97-.91,1.31-.4.37-.83.63-1.33.8-.51.18-1.03.28-1.57.28-.35,0-.69-.03-1.02-.11-.32-.08-.63-.2-.92-.37v3.16h-2.19v-10.73h1.77l.17,1.03Zm1.08,4.9c.31.09.63.14.96.14.62,0,1.11-.2,1.5-.6.39-.4.57-.96.57-1.66,0-.63-.15-1.12-.48-1.49-.32-.37-.77-.56-1.34-.56-.51,0-.92.12-1.26.35-.34.23-.6.55-.77.94v2.51c.26.15.54.28.83.37Z"/>
      </g>
      <g>
        <path class="cls-1" d="m72.85,21.28c.51.17.94.43,1.31.74.35.34.63.72.83,1.17.2.46.29.97.29,1.54,0,.6-.11,1.12-.32,1.6-.23.46-.52.86-.92,1.17-.37.34-.83.59-1.36.74-.52.18-1.09.26-1.7.26h-2.1v2.82h-2.31v-10.33h4.59c.62,0,1.17.09,1.68.28Zm-1.87,5.18c.62,0,1.09-.15,1.45-.46.35-.31.52-.72.52-1.25s-.15-.92-.46-1.22c-.32-.31-.79-.46-1.42-.46h-2.19v3.39h2.1Z"/>
        <path class="cls-1" d="m79,29.17c.35.28.86.42,1.53.42.97,0,1.83-.25,2.56-.74l.94,1.6c-.54.39-1.09.65-1.68.82s-1.23.25-1.94.25-1.29-.09-1.83-.29c-.54-.2-.99-.48-1.34-.83s-.63-.79-.82-1.29c-.2-.51-.29-1.06-.29-1.68,0-.57.11-1.11.29-1.62.22-.51.49-.94.86-1.31.39-.37.83-.66,1.36-.88.54-.22,1.12-.32,1.77-.32.55,0,1.06.09,1.53.28.48.17.88.43,1.2.76.34.32.6.72.79,1.19.18.45.28.96.28,1.53,0,.19-.02.37-.05.55-.01.19-.05.35-.09.52h-5.73c.08.43.31.79.68,1.06Zm2.53-3.64c-.26-.25-.65-.37-1.19-.37s-.97.12-1.28.35c-.32.23-.54.55-.68.97h3.56c-.02-.39-.15-.71-.42-.96Z"/>
        <path class="cls-1" d="m91.67,25.41h-4.16v5.92h-2.2v-7.86h6.37v1.94Z"/>
        <path class="cls-1" d="m98.24,26.76l-3.44,4.56h-2v-7.86h2.19v4.65l3.48-4.65h1.96v7.86h-2.19v-4.56Z"/>
        <path class="cls-1" d="m107.58,23.57c.54.2.99.48,1.37.85.39.35.68.79.88,1.29.22.51.32,1.06.32,1.68s-.11,1.16-.32,1.66c-.22.51-.52.94-.89,1.31-.4.35-.85.65-1.37.83-.52.22-1.09.31-1.71.31s-1.22-.09-1.74-.29c-.52-.2-.97-.48-1.36-.83-.38-.35-.68-.79-.88-1.31-.22-.49-.32-1.06-.32-1.68s.11-1.16.32-1.65c.2-.52.49-.96.88-1.31.39-.35.83-.65,1.36-.85.52-.2,1.11-.31,1.74-.31s1.2.09,1.73.29Zm-3.27,2.25c-.38.4-.57.92-.57,1.57s.19,1.2.57,1.59c.39.4.89.6,1.54.6s1.17-.2,1.54-.6c.37-.39.55-.92.55-1.59s-.19-1.19-.55-1.59c-.39-.39-.89-.59-1.54-.59s-1.17.2-1.54.6Z"/>
        <path class="cls-1" d="m113.51,26.39h3.1v-2.93h2.22v7.86h-2.22v-3.01h-3.1v3.01h-2.22v-7.86h2.22v2.93Z"/>
        <path class="cls-1" d="m121.96,23.5c.57-.14,1.16-.22,1.76-.22.63,0,1.17.08,1.63.25.45.17.83.4,1.11.68.31.31.52.65.65,1.06.15.42.22.86.22,1.37v2.37c0,.42.15.62.46.62.11,0,.2-.02.26-.05l.2,1.74c-.14.05-.29.09-.46.12-.17.03-.35.05-.55.05-.43,0-.8-.09-1.09-.28s-.49-.49-.57-.94c-.29.43-.68.74-1.12.94s-.99.29-1.59.29c-.91,0-1.63-.22-2.19-.68-.52-.43-.8-1.09-.8-1.94,0-.42.09-.79.26-1.11.17-.32.42-.59.75-.8.31-.22.71-.37,1.14-.49.46-.09.96-.15,1.51-.15.32,0,.62.02.86.06.28.05.52.09.75.15v-.25c0-.34-.12-.6-.35-.8-.23-.18-.6-.28-1.09-.28-.88,0-1.73.2-2.54.59l-.86-1.6c.55-.32,1.11-.57,1.66-.71Zm1.63,4.41c-.52,0-.89.08-1.14.25-.22.15-.34.37-.34.63s.09.46.28.6c.17.15.46.23.85.23.63,0,1.11-.14,1.43-.42.32-.26.49-.59.49-.94v-.19c-.48-.11-1-.17-1.57-.17Z"/>
        <path class="cls-1" d="m137.26,31.33h-2.2v-5.96h-2.27c0,.35,0,.71-.02,1.08-.01.37-.03.74-.06,1.09-.03.35-.08.71-.12,1.03-.05.32-.11.62-.18.88-.2.65-.49,1.14-.89,1.48-.4.35-.94.52-1.62.52-.31,0-.58-.02-.82-.06-.23-.03-.48-.09-.74-.2l.42-1.79c.12.05.25.08.37.11.14,0,.26.02.37.02.2,0,.37-.06.49-.19.12-.12.22-.28.29-.46.14-.34.23-.82.31-1.43.08-.63.11-1.43.11-2.42v-1.56h6.57v7.86Z"/>
        <path class="cls-1" d="m140.91,25.69c.54-.26,1.14-.39,1.77-.39.42,0,.8.06,1.19.17.39.12.71.31,1,.55.28.23.49.54.68.91.15.37.25.8.25,1.31,0,.46-.09.88-.26,1.26-.17.37-.42.69-.75.96-.31.28-.71.49-1.17.65-.45.14-.97.22-1.54.22h-3.36v-7.86h2.2v2.22Zm1.17,3.73c.51,0,.88-.11,1.13-.31.25-.22.37-.51.37-.88,0-.72-.42-1.09-1.26-1.09-.52,0-.99.11-1.4.31v1.97h1.17Z"/>
        <path class="cls-1" d="m148.97,26.39h3.1v-2.93h2.22v7.86h-2.22v-3.01h-3.1v3.01h-2.22v-7.86h2.22v2.93Z"/>
        <path class="cls-1" d="m158.02,25.67c.26-.11.54-.2.83-.26.29-.08.59-.11.91-.11.42,0,.8.06,1.16.17.35.12.68.31.94.55.28.23.49.54.65.91.15.37.23.8.23,1.31,0,.45-.08.86-.25,1.23-.17.39-.4.71-.72.99-.31.26-.69.48-1.14.63-.45.15-.97.23-1.56.23h-3.25v-7.86h2.2v2.2Zm1.08,3.74c.48,0,.85-.11,1.06-.31.25-.22.35-.51.35-.88,0-.72-.38-1.09-1.17-1.09-.49,0-.94.09-1.33.29v1.99h1.08Zm6.78,1.91h-2.22v-7.86h2.22v7.86Z"/>
        <path class="cls-1" d="m172.8,26.76l-3.44,4.56h-2v-7.86h2.19v4.65l3.48-4.65h1.96v7.86h-2.19v-4.56Zm-2.37-6.4c.15.17.38.26.68.26s.51-.09.66-.26c.17-.17.25-.4.25-.69h1.7c-.02.83-.28,1.48-.74,1.97-.49.46-1.11.71-1.87.71-.39,0-.72-.06-1.05-.19-.32-.11-.6-.28-.82-.52-.25-.22-.42-.51-.55-.83-.12-.34-.18-.72-.18-1.14h1.7c0,.29.08.52.23.69Z"/>
      </g>
    </g>
    <g id="_Текст-2" data-name="Текст">
      <g>
        <path class="cls-1" d="m70.82,8.56h-3.22v4.84h-.85v-5.59h4.07v.75Z"/>
        <path class="cls-1" d="m72.47,9.92c.19-.32.43-.54.7-.68.27-.13.58-.2.95-.2.3,0,.58.05.83.15.25.11.47.25.64.43.17.19.32.42.42.68.09.28.14.58.14.91,0,.38-.06.7-.19.98-.12.28-.28.53-.49.71-.21.2-.44.34-.71.43-.27.1-.54.15-.83.15-.28,0-.52-.03-.73-.09-.22-.06-.43-.17-.64-.31v1.94h-.8v-5.9h.64l.08.78Zm1.39,2.87c.22,0,.42-.03.6-.11.18-.08.33-.18.46-.32.13-.13.23-.3.3-.5.08-.19.11-.42.11-.67,0-.21-.03-.41-.08-.58-.07-.18-.15-.33-.27-.46-.11-.13-.25-.23-.42-.3-.16-.08-.34-.11-.55-.11-.36,0-.67.1-.91.28-.24.2-.43.45-.55.78v1.52c.38.31.81.47,1.31.47Z"/>
        <path class="cls-1" d="m79.37,12.55h.08l1.23-3.41h.9l-1.94,4.72c-.16.4-.35.69-.57.88-.22.18-.49.28-.83.28-.31,0-.58-.08-.79-.22l.23-.63c.09.04.17.08.26.09.08.02.17.02.24.02.16,0,.3-.04.41-.12.12-.08.22-.23.29-.42l.11-.3-2.1-4.32h.95l1.54,3.41Z"/>
        <path class="cls-1" d="m86.44,13.4h-.83v-3.56h-2.29v3.56h-.83v-4.26h3.94v4.26Z"/>
        <path class="cls-1" d="m91.6,13.4h-.83v-3.56h-2.29v3.56h-.83v-4.26h3.94v4.26Z"/>
        <path class="cls-1" d="m93.72,9.16c.28-.08.58-.12.9-.12.66,0,1.14.15,1.45.45.31.31.46.73.46,1.26v1.56c0,.18.03.3.09.38.06.07.14.11.24.11.06,0,.12,0,.18-.03l.08.62c-.12.06-.26.08-.43.08-.21,0-.39-.05-.53-.16-.15-.1-.24-.28-.28-.56-.36.49-.91.74-1.65.74-.51,0-.9-.12-1.2-.37-.28-.23-.43-.59-.43-1.05,0-.43.17-.77.51-1.01.34-.24.8-.37,1.39-.37.23,0,.45.02.67.06.2.04.4.09.58.15v-.23c0-.31-.09-.53-.27-.69-.17-.16-.46-.23-.83-.23-.51,0-.98.12-1.44.37l-.33-.58c.28-.18.57-.31.85-.38Zm.81,2.2c-.4,0-.68.07-.85.2-.18.14-.26.32-.26.53,0,.23.08.41.24.53.17.12.41.18.72.18.19,0,.37-.02.53-.08.16-.06.3-.13.43-.23.12-.09.22-.21.29-.34.08-.12.11-.28.11-.43v-.18c-.36-.12-.76-.18-1.22-.18Z"/>
        <path class="cls-1" d="m101.33,10.82l.79-.08,1.32-1.6h1.01l-1.64,1.92,1.84,2.34h-.98l-1.49-1.91h-.84v1.91h-.81v-4.26h.81v1.68Z"/>
        <path class="cls-1" d="m108.53,9.21c.28.1.53.26.73.45.21.2.37.43.48.71.11.28.17.58.17.9s-.06.61-.17.88-.28.51-.48.71c-.21.2-.45.36-.73.47-.28.11-.59.17-.93.17s-.66-.05-.94-.17c-.28-.1-.53-.26-.73-.45-.2-.2-.36-.43-.47-.71-.11-.28-.17-.58-.17-.9s.06-.61.17-.88c.12-.28.28-.51.48-.71.2-.2.44-.36.73-.47.28-.11.59-.17.93-.17s.65.05.93.17Zm-1.56.63c-.18.08-.34.18-.47.32-.13.14-.23.3-.3.49-.08.19-.11.39-.11.62s.03.43.11.63.17.35.3.48c.13.13.29.23.48.32.18.07.39.11.62.11s.44-.04.63-.11c.18-.08.34-.18.47-.32.13-.13.23-.29.3-.48.08-.19.11-.4.11-.63s-.03-.43-.11-.61c-.08-.19-.17-.35-.3-.48-.13-.14-.29-.25-.48-.33s-.39-.12-.62-.12-.43.04-.63.11Z"/>
        <path class="cls-1" d="m113.25,11.26l1.39-2.11h.93v4.26h-.78v-3.15h-.08l-1.28,1.91h-.38l-1.27-1.91h-.08v3.15h-.78v-4.26h.94l1.39,2.11Z"/>
        <path class="cls-1" d="m120.72,13.4h-.83v-3.56h-2.29v3.56h-.83v-4.26h3.94v4.26Z"/>
        <path class="cls-1" d="m122.85,9.16c.28-.08.58-.12.9-.12.66,0,1.14.15,1.45.45.31.31.46.73.46,1.26v1.56c0,.18.03.3.09.38.06.07.14.11.24.11.06,0,.12,0,.18-.03l.08.62c-.12.06-.26.08-.43.08-.21,0-.39-.05-.53-.16-.15-.1-.24-.28-.28-.56-.36.49-.91.74-1.65.74-.51,0-.9-.12-1.2-.37-.28-.23-.43-.59-.43-1.05,0-.43.17-.77.51-1.01.34-.24.8-.37,1.39-.37.23,0,.45.02.67.06.2.04.4.09.58.15v-.23c0-.31-.09-.53-.27-.69-.17-.16-.46-.23-.83-.23-.51,0-.98.12-1.44.37l-.33-.58c.28-.18.57-.31.85-.38Zm.81,2.2c-.4,0-.68.07-.85.2-.18.14-.26.32-.26.53,0,.23.08.41.24.53.17.12.41.18.72.18.19,0,.37-.02.53-.08.16-.06.3-.13.43-.23.12-.09.22-.21.29-.34.08-.12.11-.28.11-.43v-.18c-.36-.12-.76-.18-1.22-.18Z"/>
        <path class="cls-1" d="m127.97,10.89h2.29v-1.74h.83v4.26h-.83v-1.81h-2.29v1.81h-.83v-4.26h.83v1.74Z"/>
        <path class="cls-1" d="m135.52,10.35l-2.45,3.05h-.76v-4.26h.8v3.1l2.47-3.1h.73v4.26h-.8v-3.05Z"/>
        <path class="cls-1" d="m140.74,10.35l-2.45,3.05h-.76v-4.26h.8v3.1l2.47-3.1h.73v4.26h-.8v-3.05Zm-1.63-2.75c.1.11.24.16.42.16s.32-.05.42-.16c.12-.1.17-.24.18-.43h.66c0,.19-.05.37-.12.52-.07.15-.16.28-.27.38-.11.1-.24.18-.39.23-.15.06-.31.08-.48.08s-.34-.03-.49-.08c-.15-.05-.28-.13-.39-.23-.11-.1-.2-.23-.27-.38-.07-.15-.1-.33-.1-.52h.65c0,.19.07.33.18.43Z"/>
      </g>
      <line class="cls-7" x1="66.6" y1="17.12" x2="149.55" y2="17.12"/>
    </g>
  </g>
</svg>